<svg width="14" height="14" viewBox="0 0 20 16" fill="none" xmlns="http://www.w3.org/2000/svg">
<path d="M10 0C5.45455 0 1.57273 2.76444 0 6.66667C1.57273 10.5689 5.45455 13.3333 10 13.3333C10.3273 13.3333 10.6545 13.3333 10.9818 13.2889C10.9364 13.0044 10.9091 12.7289 10.9091 12.4444C10.9091 11.9467 10.9818 11.4489 11.1273 10.9689C10.7545 11.0578 10.3818 11.1111 10 11.1111C8.79447 11.1111 7.63832 10.6429 6.78588 9.80936C5.93344 8.97587 5.45455 7.84541 5.45455 6.66667C5.45455 5.48793 5.93344 4.35746 6.78588 3.52397C7.63832 2.69047 8.79447 2.22222 10 2.22222C11.2055 2.22222 12.3617 2.69047 13.2141 3.52397C14.0666 4.35746 14.5455 5.48793 14.5455 6.66667C14.5455 6.92444 14.5182 7.19111 14.4727 7.44889C15.0727 7.22667 15.7182 7.11111 16.3636 7.11111C17.4273 7.11111 18.4636 7.41333 19.3545 8C19.6 7.55556 19.8182 7.11111 20 6.66667C18.4273 2.76444 14.5455 0 10 0ZM10 4C9.27668 4 8.58299 4.28095 8.07153 4.78105C7.56006 5.28115 7.27273 5.95942 7.27273 6.66667C7.27273 7.37391 7.56006 8.05219 8.07153 8.55229C8.58299 9.05238 9.27668 9.33333 10 9.33333C10.7233 9.33333 11.417 9.05238 11.9285 8.55229C12.4399 8.05219 12.7273 7.37391 12.7273 6.66667C12.7273 5.95942 12.4399 5.28115 11.9285 4.78105C11.417 4.28095 10.7233 4 10 4ZM15.4545 8.88889V11.5556H12.7273V13.3333H15.4545V16H17.2727V13.3333H20V11.5556H17.2727V8.88889H15.4545Z" fill="#686B6F"/>
</svg>
